<svg xmlns="http://www.w3.org/2000/svg" viewBox="0 0 600 160" width="600" height="160"><rect width="600" height="160" fill="#080B0F"/><g stroke="#b9c6d4" stroke-opacity="0.055" stroke-width=".9" stroke-linecap="square"><line x1="585" y1="164" x2="830" y2="26"/><line x1="652" y1="69" x2="814" y2="184"/><line x1="382" y1="160" x2="473" y2="203"/><line x1="281" y1="15" x2="442" y2="98"/><line x1="131" y1="164" x2="227" y2="112"/><line x1="4" y1="139" x2="126" y2="209"/><line x1="7" y1="125" x2="76" y2="80"/><line x1="331" y1="184" x2="560" y2="-1"/><line x1="-43" y1="89" x2="220" y2="228"/><line x1="457" y1="89" x2="628" y2="199"/><line x1="86" y1="136" x2="298" y2="21"/><line x1="532" y1="163" x2="682" y2="42"/><line x1="29" y1="94" x2="220" y2="-24"/><line x1="262" y1="98" x2="439" y2="-5"/><line x1="306" y1="115" x2="527" y2="249"/><line x1="586" y1="10" x2="877" y2="179"/><line x1="-39" y1="178" x2="171" y2="290"/><line x1="561" y1="163" x2="642" y2="120"/><line x1="499" y1="-24" x2="620" y2="33"/><line x1="259" y1="62" x2="560" y2="264"/><line x1="261" y1="153" x2="415" y2="42"/><line x1="318" y1="111" x2="641" y2="-44"/><line x1="-7" y1="152" x2="163" y2="278"/><line x1="346" y1="20" x2="596" y2="-144"/><line x1="619" y1="31" x2="712" y2="86"/><line x1="415" y1="-11" x2="523" y2="47"/><line x1="319" y1="24" x2="625" y2="199"/><line x1="281" y1="172" x2="407" y2="101"/><line x1="252" y1="118" x2="481" y2="-49"/><line x1="422" y1="60" x2="659" y2="-91"/><line x1="296" y1="134" x2="570" y2="292"/><line x1="206" y1="160" x2="393" y2="65"/><line x1="626" y1="7" x2="784" y2="-85"/><line x1="-10" y1="116" x2="167" y2="216"/></g><g transform="translate(22,44) scale(0.098)"><defs><clipPath id="ces"><path d="M149 4 L258 29 L264 116 L268 125 L475 85 L602 149 L557 168 L609 189 L553 211 L582 234 L570 237 L725 296 L573 296 L456 257 L421 263 L271 219 L268 125 L234 138 L249 169 L202 163 L204 200 L164 159 L170 113 L186 109 L165 92 L4 53 Z"/></clipPath></defs><path d="M149 4 L258 29 L264 116 L268 125 L475 85 L602 149 L557 168 L609 189 L553 211 L582 234 L570 237 L725 296 L573 296 L456 257 L421 263 L271 219 L268 125 L234 138 L249 169 L202 163 L204 200 L164 159 L170 113 L186 109 L165 92 L4 53 Z" fill="#1c2635"/><g clip-path="url(#ces)"><path d="M269 132 L378 155 L322 170 L400 188 L330 204 L376 219 L336 227 L272 226 Z" fill="#b0b7c0"/><path d="M271 219 L268 125 L234 138 L249 169 L202 163 L204 200 L164 159 L170 113" fill="none" stroke="#b0b7c0" stroke-width="22" stroke-linejoin="miter"/></g><path d="M139.9 45.7 L160.5 45.3 L173.1 53.3 L156.6 53.5 Z" fill="#eef1f5"/></g><text x="122" y="68" font-family="'Cinzel','Trajan Pro',Georgia,'Times New Roman',serif" font-size="24" letter-spacing="4.0" fill="#eceef1" fill-opacity="1.0" text-anchor="start">NEBELKRÄHE</text><text x="123" y="92" font-family="ui-monospace,Menlo,Consolas,monospace" font-size="12" letter-spacing="4.0" fill="#8b8d92" fill-opacity="1.0" text-anchor="start">THE PRESCIENT DESK™</text><line x1="122" y1="104" x2="560" y2="104" stroke="#c9a227" stroke-opacity="0.45"/><text x="123" y="126" font-family="ui-monospace,Menlo,Consolas,monospace" font-size="13" letter-spacing="2.0" fill="#9aa0a8" fill-opacity="1.0" text-anchor="start">retroprescientaudit.com</text></svg>
